STARTFONT 2.1
FONT -Adobe-ITC Souvenir-Light-I-Normal--12-120-75-75-P-69-ISO8859-1
SIZE 12 75 75
FONTBOUNDINGBOX 18 15 -2 -3

STARTPROPERTIES 30
FOUNDRY "Adobe"
FAMILY_NAME "ITC Souvenir"
WEIGHT_NAME "Light"
SLANT "I"
SETWIDTH_NAME "Normal"
ADD_STYLE_NAME ""
PIXEL_SIZE 12
POINT_SIZE 120
RESOLUTION_X 75
RESOLUTION_Y 75
SPACING "P"
AVERAGE_WIDTH 69
CHARSET_REGISTRY "ISO8859"
CHARSET_ENCODING "1"
CAP_HEIGHT 9
X_HEIGHT 6
FACE_NAME "ITC Souvenir Light Italic"
COPYRIGHT "Copyright (c) 1984, 1987 Adobe Systems Incorporated. All Rights Reserved. Copyright (c) 1988, 1991 Digital Equipment Corporation. All Rights Reserved."
NOTICE "ITC Souvenir is a registered trademark of International Typeface Corporation.  "
_DEC_DEVICE_FONTNAMES "PS=Souvenir-LightItalic"
_DEC_PRODUCTINFO "DECwindows Fonts V2.2, 07-Nov-1991"
RELATIVE_SETWIDTH 50
RELATIVE_WEIGHT 30
CHARSET_COLLECTIONS "ASCII ISO8859-1 ADOBE-STANDARD"
FULL_NAME "ITC Souvenir Light Italic"
WEIGHT 10
QUAD_WIDTH 7
DEFAULT_CHAR 32
FONT_DESCENT 3
FONT_ASCENT 11
ENDPROPERTIES

CHARS 191

STARTCHAR space
ENCODING 32
SWIDTH 300 0
DWIDTH 4 0
BBX 1 1 0 0
BITMAP
00
ENDCHAR

STARTCHAR exclam
ENCODING 33
SWIDTH 300 0
DWIDTH 4 0
BBX 3 9 0 0
BITMAP
20
20
20
40
40
40
00
80
80
ENDCHAR

STARTCHAR quotedbl
ENCODING 34
SWIDTH 360 0
DWIDTH 5 0
BBX 4 3 1 6
BITMAP
50
50
A0
ENDCHAR

STARTCHAR numbersign
ENCODING 35
SWIDTH 600 0
DWIDTH 7 0
BBX 7 8 0 1
BITMAP
14
14
7E
28
28
FC
50
50
ENDCHAR

STARTCHAR dollar
ENCODING 36
SWIDTH 600 0
DWIDTH 7 0
BBX 7 11 0 -1
BITMAP
08
08
3C
42
40
38
04
84
78
20
20
ENDCHAR

STARTCHAR percent
ENCODING 37
SWIDTH 900 0
DWIDTH 12 0
BBX 11 9 0 0
BITMAP
6040
9080
9100
92C0
9520
6920
1120
2120
40C0
ENDCHAR

STARTCHAR ampersand
ENCODING 38
SWIDTH 820 0
DWIDTH 10 0
BBX 8 9 1 0
BITMAP
18
24
44
28
33
4A
84
8C
73
ENDCHAR

STARTCHAR quoteright
ENCODING 39
SWIDTH 300 0
DWIDTH 4 0
BBX 2 3 1 6
BITMAP
40
40
80
ENDCHAR

STARTCHAR parenleft
ENCODING 40
SWIDTH 260 0
DWIDTH 4 0
BBX 4 11 0 -2
BITMAP
10
20
40
40
80
80
80
80
80
40
40
ENDCHAR

STARTCHAR parenright
ENCODING 41
SWIDTH 260 0
DWIDTH 4 0
BBX 4 11 -1 -2
BITMAP
20
20
10
10
10
10
10
20
20
40
80
ENDCHAR

STARTCHAR asterisk
ENCODING 42
SWIDTH 540 0
DWIDTH 7 0
BBX 5 5 1 4
BITMAP
20
A8
70
A8
20
ENDCHAR

STARTCHAR plus
ENCODING 43
SWIDTH 660 0
DWIDTH 7 0
BBX 7 7 0 0
BITMAP
10
10
10
FE
10
10
10
ENDCHAR

STARTCHAR comma
ENCODING 44
SWIDTH 300 0
DWIDTH 4 0
BBX 2 3 0 -1
BITMAP
40
40
80
ENDCHAR

STARTCHAR minus
ENCODING 45
SWIDTH 660 0
DWIDTH 9 0
BBX 7 1 1 3
BITMAP
FE
ENDCHAR

STARTCHAR period
ENCODING 46
SWIDTH 300 0
DWIDTH 4 0
BBX 1 2 1 0
BITMAP
80
80
ENDCHAR

STARTCHAR slash
ENCODING 47
SWIDTH 220 0
DWIDTH 4 0
BBX 5 10 -1 -1
BITMAP
08
08
10
10
20
20
40
40
80
80
ENDCHAR

STARTCHAR zero
ENCODING 48
SWIDTH 600 0
DWIDTH 7 0
BBX 6 9 0 0
BITMAP
38
44
44
84
84
84
88
88
70
ENDCHAR

STARTCHAR one
ENCODING 49
SWIDTH 600 0
DWIDTH 7 0
BBX 4 9 1 0
BITMAP
10
70
10
10
20
20
20
20
F0
ENDCHAR

STARTCHAR two
ENCODING 50
SWIDTH 600 0
DWIDTH 7 0
BBX 6 9 0 0
BITMAP
38
44
44
08
10
20
40
84
F8
ENDCHAR

STARTCHAR three
ENCODING 51
SWIDTH 600 0
DWIDTH 7 0
BBX 6 9 0 0
BITMAP
38
44
44
08
30
08
84
88
70
ENDCHAR

STARTCHAR four
ENCODING 52
SWIDTH 600 0
DWIDTH 7 0
BBX 6 9 0 0
BITMAP
0C
14
24
48
48
88
FC
10
10
ENDCHAR

STARTCHAR five
ENCODING 53
SWIDTH 600 0
DWIDTH 7 0
BBX 6 9 0 0
BITMAP
3C
20
20
78
44
04
84
88
70
ENDCHAR

STARTCHAR six
ENCODING 54
SWIDTH 600 0
DWIDTH 7 0
BBX 6 9 0 0
BITMAP
1C
20
40
78
C4
84
84
88
70
ENDCHAR

STARTCHAR seven
ENCODING 55
SWIDTH 600 0
DWIDTH 7 0
BBX 6 9 1 0
BITMAP
FC
84
08
10
10
20
40
40
80
ENDCHAR

STARTCHAR eight
ENCODING 56
SWIDTH 600 0
DWIDTH 7 0
BBX 6 9 0 0
BITMAP
38
44
44
28
78
84
84
88
70
ENDCHAR

STARTCHAR nine
ENCODING 57
SWIDTH 600 0
DWIDTH 7 0
BBX 6 9 0 0
BITMAP
38
44
84
84
8C
78
08
30
C0
ENDCHAR

STARTCHAR colon
ENCODING 58
SWIDTH 300 0
DWIDTH 4 0
BBX 2 5 1 0
BITMAP
40
40
00
80
80
ENDCHAR

STARTCHAR semicolon
ENCODING 59
SWIDTH 300 0
DWIDTH 4 0
BBX 3 6 0 -1
BITMAP
20
20
00
40
40
80
ENDCHAR

STARTCHAR less
ENCODING 60
SWIDTH 660 0
DWIDTH 7 0
BBX 6 7 0 0
BITMAP
04
18
60
80
60
18
04
ENDCHAR

STARTCHAR equal
ENCODING 61
SWIDTH 660 0
DWIDTH 7 0
BBX 6 3 0 2
BITMAP
FC
00
FC
ENDCHAR

STARTCHAR greater
ENCODING 62
SWIDTH 660 0
DWIDTH 7 0
BBX 6 7 0 0
BITMAP
80
60
18
04
18
60
80
ENDCHAR

STARTCHAR question
ENCODING 63
SWIDTH 420 0
DWIDTH 6 0
BBX 5 9 1 0
BITMAP
70
88
88
10
20
40
00
80
80
ENDCHAR

STARTCHAR at
ENCODING 64
SWIDTH 820 0
DWIDTH 10 0
BBX 9 9 0 0
BITMAP
3E00
4100
9C80
A480
A480
A480
9B00
4000
3E00
ENDCHAR

STARTCHAR A
ENCODING 65
SWIDTH 740 0
DWIDTH 9 0
BBX 9 9 0 0
BITMAP
0400
0C00
1200
1200
2200
3F00
4100
4100
E380
ENDCHAR

STARTCHAR B
ENCODING 66
SWIDTH 680 0
DWIDTH 9 0
BBX 7 9 1 0
BITMAP
7E
22
24
2C
36
62
42
42
FC
ENDCHAR

STARTCHAR C
ENCODING 67
SWIDTH 720 0
DWIDTH 9 0
BBX 8 9 1 0
BITMAP
1F
61
41
80
80
80
80
42
3C
ENDCHAR

STARTCHAR D
ENCODING 68
SWIDTH 760 0
DWIDTH 9 0
BBX 9 9 0 0
BITMAP
7E00
2100
2080
2080
4080
4080
4100
4200
FC00
ENDCHAR

STARTCHAR E
ENCODING 69
SWIDTH 660 0
DWIDTH 8 0
BBX 8 9 0 0
BITMAP
7F
21
20
20
3C
40
40
42
FC
ENDCHAR

STARTCHAR F
ENCODING 70
SWIDTH 580 0
DWIDTH 7 0
BBX 7 9 0 0
BITMAP
7E
22
20
20
3C
40
40
40
E0
ENDCHAR

STARTCHAR G
ENCODING 71
SWIDTH 760 0
DWIDTH 9 0
BBX 8 9 0 0
BITMAP
1F
61
41
80
80
87
81
43
3C
ENDCHAR

STARTCHAR H
ENCODING 72
SWIDTH 820 0
DWIDTH 10 0
BBX 10 9 0 0
BITMAP
71C0
2080
2080
2080
3F00
4100
4100
4100
E380
ENDCHAR

STARTCHAR I
ENCODING 73
SWIDTH 300 0
DWIDTH 4 0
BBX 4 9 0 0
BITMAP
70
20
20
20
40
40
40
40
E0
ENDCHAR

STARTCHAR J
ENCODING 74
SWIDTH 500 0
DWIDTH 6 0
BBX 7 9 -1 0
BITMAP
0E
04
04
04
08
08
88
88
70
ENDCHAR

STARTCHAR K
ENCODING 75
SWIDTH 700 0
DWIDTH 9 0
BBX 9 9 0 0
BITMAP
7180
2100
2200
2400
3800
4400
4200
4200
E300
ENDCHAR

STARTCHAR L
ENCODING 76
SWIDTH 640 0
DWIDTH 8 0
BBX 7 9 0 0
BITMAP
70
20
20
20
40
40
40
42
FC
ENDCHAR

STARTCHAR M
ENCODING 77
SWIDTH 880 0
DWIDTH 12 0
BBX 12 9 0 0
BITMAP
7070
28A0
28A0
2920
2640
4440
4440
4040
E0E0
ENDCHAR

STARTCHAR N
ENCODING 78
SWIDTH 780 0
DWIDTH 10 0
BBX 10 9 0 0
BITMAP
71C0
2880
2480
2480
2280
4300
4100
4100
E380
ENDCHAR

STARTCHAR O
ENCODING 79
SWIDTH 780 0
DWIDTH 10 0
BBX 8 9 1 0
BITMAP
1C
62
41
81
81
81
83
42
3C
ENDCHAR

STARTCHAR P
ENCODING 80
SWIDTH 640 0
DWIDTH 9 0
BBX 8 9 0 0
BITMAP
7E
21
21
21
26
78
40
40
E0
ENDCHAR

STARTCHAR Q
ENCODING 81
SWIDTH 780 0
DWIDTH 10 0
BBX 9 10 0 -1
BITMAP
1E00
6100
4080
8080
8080
8080
8900
4B00
3C00
0700
ENDCHAR

STARTCHAR R
ENCODING 82
SWIDTH 700 0
DWIDTH 9 0
BBX 8 9 0 0
BITMAP
7E
21
21
23
3C
44
42
42
E7
ENDCHAR

STARTCHAR S
ENCODING 83
SWIDTH 620 0
DWIDTH 8 0
BBX 7 9 0 0
BITMAP
3C
42
42
30
0C
02
82
84
78
ENDCHAR

STARTCHAR T
ENCODING 84
SWIDTH 660 0
DWIDTH 8 0
BBX 7 9 1 0
BITMAP
FE
92
10
10
20
20
20
20
70
ENDCHAR

STARTCHAR U
ENCODING 85
SWIDTH 760 0
DWIDTH 9 0
BBX 9 9 0 0
BITMAP
E380
4100
4100
4100
8200
8200
8200
8400
7800
ENDCHAR

STARTCHAR V
ENCODING 86
SWIDTH 700 0
DWIDTH 9 0
BBX 9 9 1 0
BITMAP
E380
4100
4100
4200
4200
2400
2400
2800
1000
ENDCHAR

STARTCHAR W
ENCODING 87
SWIDTH 980 0
DWIDTH 11 0
BBX 12 9 0 0
BITMAP
E670
4420
4420
4440
4440
4480
2A80
3300
2200
ENDCHAR

STARTCHAR X
ENCODING 88
SWIDTH 740 0
DWIDTH 9 0
BBX 9 9 0 0
BITMAP
7380
2100
2200
1400
0800
1400
2200
4200
E700
ENDCHAR

STARTCHAR Y
ENCODING 89
SWIDTH 740 0
DWIDTH 9 0
BBX 9 9 0 0
BITMAP
E380
4100
4200
2400
3800
1000
2000
2000
7000
ENDCHAR

STARTCHAR Z
ENCODING 90
SWIDTH 580 0
DWIDTH 7 0
BBX 7 9 0 0
BITMAP
3E
42
04
08
10
20
40
84
F8
ENDCHAR

STARTCHAR bracketleft
ENCODING 91
SWIDTH 220 0
DWIDTH 4 0
BBX 4 11 0 -2
BITMAP
30
20
20
20
40
40
40
40
80
80
C0
ENDCHAR

STARTCHAR backslash
ENCODING 92
SWIDTH 600 0
DWIDTH 8 0
BBX 5 9 1 0
BITMAP
80
40
40
20
20
10
10
08
08
ENDCHAR

STARTCHAR bracketright
ENCODING 93
SWIDTH 220 0
DWIDTH 4 0
BBX 5 11 -2 -2
BITMAP
38
08
08
10
10
10
10
20
20
20
E0
ENDCHAR

STARTCHAR asciicircum
ENCODING 94
SWIDTH 660 0
DWIDTH 7 0
BBX 7 6 0 3
BITMAP
10
28
28
44
44
82
ENDCHAR

STARTCHAR underscore
ENCODING 95
SWIDTH 500 0
DWIDTH 6 0
BBX 6 1 0 -2
BITMAP
FC
ENDCHAR

STARTCHAR quoteleft
ENCODING 96
SWIDTH 300 0
DWIDTH 4 0
BBX 2 3 1 6
BITMAP
80
80
40
ENDCHAR

STARTCHAR a
ENCODING 97
SWIDTH 520 0
DWIDTH 7 0
BBX 6 6 0 0
BITMAP
34
4C
84
88
88
74
ENDCHAR

STARTCHAR b
ENCODING 98
SWIDTH 540 0
DWIDTH 7 0
BBX 6 9 0 0
BITMAP
60
20
20
38
44
44
44
C8
B0
ENDCHAR

STARTCHAR c
ENCODING 99
SWIDTH 460 0
DWIDTH 5 0
BBX 5 6 0 0
BITMAP
38
48
80
80
90
60
ENDCHAR

STARTCHAR d
ENCODING 100
SWIDTH 580 0
DWIDTH 8 0
BBX 7 9 0 0
BITMAP
06
02
02
34
4C
84
84
88
74
ENDCHAR

STARTCHAR e
ENCODING 101
SWIDTH 500 0
DWIDTH 6 0
BBX 5 6 0 0
BITMAP
30
48
98
E0
88
70
ENDCHAR

STARTCHAR f
ENCODING 102
SWIDTH 360 0
DWIDTH 4 0
BBX 6 12 -1 -3
BITMAP
0C
10
10
38
10
10
10
20
20
20
20
C0
ENDCHAR

STARTCHAR g
ENCODING 103
SWIDTH 520 0
DWIDTH 7 0
BBX 6 9 0 -3
BITMAP
34
4C
84
88
88
70
08
88
70
ENDCHAR

STARTCHAR h
ENCODING 104
SWIDTH 580 0
DWIDTH 7 0
BBX 7 9 -1 0
BITMAP
30
10
20
2C
32
22
42
44
C6
ENDCHAR

STARTCHAR i
ENCODING 105
SWIDTH 280 0
DWIDTH 3 0
BBX 3 9 0 0
BITMAP
20
20
00
C0
40
40
80
80
C0
ENDCHAR

STARTCHAR j
ENCODING 106
SWIDTH 260 0
DWIDTH 3 0
BBX 5 12 -2 -3
BITMAP
08
08
00
30
10
10
10
20
20
20
20
C0
ENDCHAR

STARTCHAR k
ENCODING 107
SWIDTH 560 0
DWIDTH 6 0
BBX 6 9 0 0
BITMAP
60
20
40
4C
50
60
90
90
88
ENDCHAR

STARTCHAR l
ENCODING 108
SWIDTH 300 0
DWIDTH 3 0
BBX 3 9 0 0
BITMAP
60
20
40
40
40
40
80
80
C0
ENDCHAR

STARTCHAR m
ENCODING 109
SWIDTH 880 0
DWIDTH 11 0
BBX 10 6 0 0
BITMAP
D980
2640
4440
4440
8880
88C0
ENDCHAR

STARTCHAR n
ENCODING 110
SWIDTH 600 0
DWIDTH 7 0
BBX 6 6 0 0
BITMAP
B8
44
44
88
88
8C
ENDCHAR

STARTCHAR o
ENCODING 111
SWIDTH 560 0
DWIDTH 7 0
BBX 6 6 0 0
BITMAP
38
44
84
84
88
70
ENDCHAR

STARTCHAR p
ENCODING 112
SWIDTH 580 0
DWIDTH 7 0
BBX 7 9 -1 -3
BITMAP
5C
22
22
22
66
58
40
40
E0
ENDCHAR

STARTCHAR q
ENCODING 113
SWIDTH 560 0
DWIDTH 7 0
BBX 7 9 0 -3
BITMAP
3A
44
84
84
98
68
08
10
38
ENDCHAR

STARTCHAR r
ENCODING 114
SWIDTH 400 0
DWIDTH 5 0
BBX 5 6 0 0
BITMAP
B0
48
40
80
80
80
ENDCHAR

STARTCHAR s
ENCODING 115
SWIDTH 420 0
DWIDTH 6 0
BBX 5 6 0 0
BITMAP
38
48
60
18
88
F0
ENDCHAR

STARTCHAR t
ENCODING 116
SWIDTH 360 0
DWIDTH 5 0
BBX 4 8 1 0
BITMAP
20
20
F0
40
40
80
A0
C0
ENDCHAR

STARTCHAR u
ENCODING 117
SWIDTH 580 0
DWIDTH 7 0
BBX 6 6 0 0
BITMAP
C4
44
84
88
98
6C
ENDCHAR

STARTCHAR v
ENCODING 118
SWIDTH 480 0
DWIDTH 7 0
BBX 6 6 0 0
BITMAP
CC
44
44
48
50
20
ENDCHAR

STARTCHAR w
ENCODING 119
SWIDTH 720 0
DWIDTH 9 0
BBX 8 6 0 0
BITMAP
C9
49
91
92
92
6C
ENDCHAR

STARTCHAR x
ENCODING 120
SWIDTH 540 0
DWIDTH 7 0
BBX 6 6 0 0
BITMAP
44
AC
30
20
54
88
ENDCHAR

STARTCHAR y
ENCODING 121
SWIDTH 500 0
DWIDTH 7 0
BBX 6 9 0 -3
BITMAP
CC
44
44
44
48
50
30
20
C0
ENDCHAR

STARTCHAR z
ENCODING 122
SWIDTH 460 0
DWIDTH 7 0
BBX 6 6 0 0
BITMAP
3C
44
18
20
44
F8
ENDCHAR

STARTCHAR braceleft
ENCODING 123
SWIDTH 300 0
DWIDTH 4 0
BBX 5 11 -1 -2
BITMAP
18
20
20
20
20
C0
40
40
40
40
20
ENDCHAR

STARTCHAR bar
ENCODING 124
SWIDTH 660 0
DWIDTH 8 0
BBX 1 9 3 0
BITMAP
80
80
80
80
80
80
80
80
80
ENDCHAR

STARTCHAR braceright
ENCODING 125
SWIDTH 300 0
DWIDTH 4 0
BBX 4 11 0 -2
BITMAP
40
20
20
20
20
10
20
40
40
40
80
ENDCHAR

STARTCHAR asciitilde
ENCODING 126
SWIDTH 660 0
DWIDTH 7 0
BBX 6 2 0 3
BITMAP
64
98
ENDCHAR

STARTCHAR space
ENCODING 160
SWIDTH 300 0
DWIDTH 4 0
BBX 1 1 0 0
BITMAP
00
ENDCHAR

STARTCHAR exclamdown
ENCODING 161
SWIDTH 300 0
DWIDTH 4 0
BBX 3 9 0 -3
BITMAP
20
20
00
40
40
40
80
80
80
ENDCHAR

STARTCHAR cent
ENCODING 162
SWIDTH 600 0
DWIDTH 7 0
BBX 6 10 0 0
BITMAP
10
10
3C
44
80
80
84
78
20
20
ENDCHAR

STARTCHAR sterling
ENCODING 163
SWIDTH 600 0
DWIDTH 7 0
BBX 6 9 0 0
BITMAP
18
24
24
20
F0
40
40
A4
98
ENDCHAR

STARTCHAR currency
ENCODING 164
SWIDTH 740 0
DWIDTH 7 0
BBX 6 6 0 1
BITMAP
B4
48
84
84
48
B4
ENDCHAR

STARTCHAR yen
ENCODING 165
SWIDTH 800 0
DWIDTH 7 0
BBX 7 9 1 0
BITMAP
EE
44
48
30
78
20
F8
40
E0
ENDCHAR

STARTCHAR brokenbar
ENCODING 166
SWIDTH 660 0
DWIDTH 8 0
BBX 1 9 3 0
BITMAP
80
80
80
00
00
00
80
80
80
ENDCHAR

STARTCHAR section
ENCODING 167
SWIDTH 560 0
DWIDTH 7 0
BBX 6 11 0 -2
BITMAP
38
44
40
30
48
84
48
30
08
88
70
ENDCHAR

STARTCHAR dieresis
ENCODING 168
SWIDTH 360 0
DWIDTH 5 0
BBX 3 2 2 7
BITMAP
A0
A0
ENDCHAR

STARTCHAR copyright
ENCODING 169
SWIDTH 820 0
DWIDTH 10 0
BBX 9 9 0 0
BITMAP
3F00
4080
9C80
A280
A080
A280
9C80
8100
7E00
ENDCHAR

STARTCHAR ordfeminine
ENCODING 170
SWIDTH 400 0
DWIDTH 5 0
BBX 4 6 0 3
BITMAP
70
90
A0
50
00
E0
ENDCHAR

STARTCHAR guillemotleft
ENCODING 171
SWIDTH 360 0
DWIDTH 5 0
BBX 4 4 0 1
BITMAP
50
A0
A0
50
ENDCHAR

STARTCHAR logicalnot
ENCODING 172
SWIDTH 660 0
DWIDTH 7 0
BBX 6 4 0 1
BITMAP
FC
04
04
04
ENDCHAR

STARTCHAR hyphen
ENCODING 173
SWIDTH 260 0
DWIDTH 3 0
BBX 3 1 0 3
BITMAP
E0
ENDCHAR

STARTCHAR registered
ENCODING 174
SWIDTH 820 0
DWIDTH 10 0
BBX 9 9 0 0
BITMAP
3F00
4080
BC80
A280
BC80
A480
A280
8100
7E00
ENDCHAR

STARTCHAR macron
ENCODING 175
SWIDTH 300 0
DWIDTH 4 0
BBX 4 1 0 7
BITMAP
F0
ENDCHAR

STARTCHAR degree
ENCODING 176
SWIDTH 400 0
DWIDTH 5 0
BBX 4 4 0 5
BITMAP
60
90
90
60
ENDCHAR

STARTCHAR plusminus
ENCODING 177
SWIDTH 660 0
DWIDTH 7 0
BBX 7 7 0 0
BITMAP
10
10
FE
10
10
00
FE
ENDCHAR

STARTCHAR twosuperior
ENCODING 178
SWIDTH 360 0
DWIDTH 4 0
BBX 4 5 0 4
BITMAP
70
90
20
40
F0
ENDCHAR

STARTCHAR threesuperior
ENCODING 179
SWIDTH 360 0
DWIDTH 4 0
BBX 4 5 0 4
BITMAP
F0
20
40
20
C0
ENDCHAR

STARTCHAR acute
ENCODING 180
SWIDTH 280 0
DWIDTH 4 0
BBX 3 2 1 7
BITMAP
60
80
ENDCHAR

STARTCHAR mu
ENCODING 181
SWIDTH 580 0
DWIDTH 7 0
BBX 7 9 -1 -3
BITMAP
62
22
22
44
4C
76
80
80
80
ENDCHAR

STARTCHAR paragraph
ENCODING 182
SWIDTH 680 0
DWIDTH 9 0
BBX 8 11 0 -2
BITMAP
3F
4A
8A
92
94
74
14
24
28
28
28
ENDCHAR

STARTCHAR periodcentered
ENCODING 183
SWIDTH 300 0
DWIDTH 4 0
BBX 1 2 1 3
BITMAP
80
80
ENDCHAR

STARTCHAR cedilla
ENCODING 184
SWIDTH 380 0
DWIDTH 5 0
BBX 3 3 1 -3
BITMAP
20
A0
40
ENDCHAR

STARTCHAR onesuperior
ENCODING 185
SWIDTH 360 0
DWIDTH 4 0
BBX 3 5 0 4
BITMAP
20
E0
40
40
E0
ENDCHAR

STARTCHAR ordmasculine
ENCODING 186
SWIDTH 400 0
DWIDTH 5 0
BBX 3 6 1 3
BITMAP
60
A0
A0
C0
00
E0
ENDCHAR

STARTCHAR guillemotright
ENCODING 187
SWIDTH 360 0
DWIDTH 5 0
BBX 4 4 0 1
BITMAP
A0
50
50
A0
ENDCHAR

STARTCHAR onequarter
ENCODING 188
SWIDTH 900 0
DWIDTH 10 0
BBX 10 9 0 0
BITMAP
2200
E200
4400
4400
E880
0980
1280
17C0
2100
ENDCHAR

STARTCHAR onehalf
ENCODING 189
SWIDTH 900 0
DWIDTH 10 0
BBX 9 9 0 0
BITMAP
2200
E200
4400
4400
EB80
0C80
1100
1200
2780
ENDCHAR

STARTCHAR threequarters
ENCODING 190
SWIDTH 900 0
DWIDTH 10 0
BBX 10 9 0 0
BITMAP
F200
2200
4400
2400
C880
0980
1280
17C0
2100
ENDCHAR

STARTCHAR questiondown
ENCODING 191
SWIDTH 420 0
DWIDTH 6 0
BBX 5 10 0 -3
BITMAP
08
08
00
10
20
40
80
88
88
70
ENDCHAR

STARTCHAR Agrave
ENCODING 192
SWIDTH 740 0
DWIDTH 9 0
BBX 9 12 -1 0
BITMAP
1800
0400
0000
0400
0C00
1200
1200
2200
3F00
4100
4100
E380
ENDCHAR

STARTCHAR Aacute
ENCODING 193
SWIDTH 740 0
DWIDTH 9 0
BBX 9 12 -1 0
BITMAP
0300
0400
0000
0400
0C00
1200
1200
2200
3F00
4100
4100
E380
ENDCHAR

STARTCHAR Acircumflex
ENCODING 194
SWIDTH 740 0
DWIDTH 9 0
BBX 9 12 -1 0
BITMAP
0400
0A00
0000
0400
0C00
1200
1200
2200
3F00
4100
4100
E380
ENDCHAR

STARTCHAR Atilde
ENCODING 195
SWIDTH 740 0
DWIDTH 9 0
BBX 9 12 -1 0
BITMAP
0500
0A00
0000
0400
0C00
1200
1200
2200
3F00
4100
4100
E380
ENDCHAR

STARTCHAR Adieresis
ENCODING 196
SWIDTH 740 0
DWIDTH 9 0
BBX 9 12 -1 0
BITMAP
0A00
0A00
0000
0400
0C00
1200
1200
2200
3F00
4100
4100
E380
ENDCHAR

STARTCHAR Aring
ENCODING 197
SWIDTH 740 0
DWIDTH 9 0
BBX 9 12 -1 0
BITMAP
0400
0A00
0400
0400
0C00
1200
1200
2200
3F00
4100
4100
E380
ENDCHAR

STARTCHAR AE
ENCODING 198
SWIDTH 960 0
DWIDTH 12 0
BBX 12 9 0 0
BITMAP
07F0
0510
0900
1100
3FC0
2200
4200
4220
E7E0
ENDCHAR

STARTCHAR Ccedilla
ENCODING 199
SWIDTH 720 0
DWIDTH 9 0
BBX 8 12 0 -3
BITMAP
1F
61
40
80
80
80
81
42
3C
08
28
10
ENDCHAR

STARTCHAR Egrave
ENCODING 200
SWIDTH 660 0
DWIDTH 8 0
BBX 8 12 0 0
BITMAP
18
04
00
7F
21
20
20
3C
40
40
42
FC
ENDCHAR

STARTCHAR Eacute
ENCODING 201
SWIDTH 660 0
DWIDTH 8 0
BBX 8 12 0 0
BITMAP
06
08
00
7F
21
20
20
3C
40
40
42
FC
ENDCHAR

STARTCHAR Ecircumflex
ENCODING 202
SWIDTH 660 0
DWIDTH 8 0
BBX 8 12 0 0
BITMAP
08
14
00
7F
21
20
20
3C
40
40
42
FC
ENDCHAR

STARTCHAR Edieresis
ENCODING 203
SWIDTH 660 0
DWIDTH 8 0
BBX 8 12 0 0
BITMAP
14
14
00
7F
21
20
20
3C
40
40
42
FC
ENDCHAR

STARTCHAR Igrave
ENCODING 204
SWIDTH 300 0
DWIDTH 4 0
BBX 4 12 0 0
BITMAP
60
10
00
70
20
20
20
40
40
40
40
E0
ENDCHAR

STARTCHAR Iacute
ENCODING 205
SWIDTH 300 0
DWIDTH 4 0
BBX 5 12 0 0
BITMAP
18
20
00
70
20
20
20
40
40
40
40
E0
ENDCHAR

STARTCHAR Icircumflex
ENCODING 206
SWIDTH 300 0
DWIDTH 4 0
BBX 4 12 0 0
BITMAP
20
50
00
70
20
20
20
40
40
40
40
E0
ENDCHAR

STARTCHAR Idieresis
ENCODING 207
SWIDTH 300 0
DWIDTH 4 0
BBX 4 12 0 0
BITMAP
50
50
00
70
20
20
20
40
40
40
40
E0
ENDCHAR

STARTCHAR Eth
ENCODING 208
SWIDTH 760 0
DWIDTH 9 0
BBX 8 9 0 0
BITMAP
7C
22
21
21
F1
41
42
44
F8
ENDCHAR

STARTCHAR Ntilde
ENCODING 209
SWIDTH 780 0
DWIDTH 10 0
BBX 10 12 0 0
BITMAP
0500
0A00
0000
71C0
2880
2480
2480
2280
4300
4100
4100
E380
ENDCHAR

STARTCHAR Ograve
ENCODING 210
SWIDTH 780 0
DWIDTH 10 0
BBX 9 12 0 0
BITMAP
1800
0400
0000
1E00
6100
4080
8080
8080
8080
8100
4300
3C00
ENDCHAR

STARTCHAR Oacute
ENCODING 211
SWIDTH 780 0
DWIDTH 10 0
BBX 9 12 0 0
BITMAP
0300
0400
0000
1E00
6100
4080
8080
8080
8080
8100
4300
3C00
ENDCHAR

STARTCHAR Ocircumflex
ENCODING 212
SWIDTH 780 0
DWIDTH 10 0
BBX 9 12 0 0
BITMAP
0400
0A00
0000
1E00
6100
4080
8080
8080
8080
8100
4300
3C00
ENDCHAR

STARTCHAR Otilde
ENCODING 213
SWIDTH 780 0
DWIDTH 10 0
BBX 9 12 0 0
BITMAP
0A00
1400
0000
1E00
6100
4080
8080
8080
8080
8100
4300
3C00
ENDCHAR

STARTCHAR Odieresis
ENCODING 214
SWIDTH 780 0
DWIDTH 10 0
BBX 9 12 0 0
BITMAP
0A00
0A00
0000
1E00
6100
4080
8080
8080
8080
8100
4300
3C00
ENDCHAR

STARTCHAR multiply
ENCODING 215
SWIDTH 660 0
DWIDTH 7 0
BBX 7 7 0 0
BITMAP
82
44
28
10
28
44
82
ENDCHAR

STARTCHAR Oslash
ENCODING 216
SWIDTH 780 0
DWIDTH 10 0
BBX 9 9 0 0
BITMAP
1E80
6100
4280
8480
8880
9080
A100
4300
BC00
ENDCHAR

STARTCHAR Ugrave
ENCODING 217
SWIDTH 760 0
DWIDTH 9 0
BBX 9 12 0 0
BITMAP
1800
0400
0000
E380
4100
4100
4100
8200
8200
8200
8400
7800
ENDCHAR

STARTCHAR Uacute
ENCODING 218
SWIDTH 760 0
DWIDTH 9 0
BBX 9 12 0 0
BITMAP
0600
0800
0000
E380
4100
4100
4100
8200
8200
8200
8400
7800
ENDCHAR

STARTCHAR Ucircumflex
ENCODING 219
SWIDTH 760 0
DWIDTH 9 0
BBX 9 12 0 0
BITMAP
0400
0A00
0000
E380
4100
4100
4100
8200
8200
8200
8400
7800
ENDCHAR

STARTCHAR Udieresis
ENCODING 220
SWIDTH 760 0
DWIDTH 9 0
BBX 9 12 0 0
BITMAP
1200
1200
0000
E380
4100
4100
4100
8200
8200
8200
8400
7800
ENDCHAR

STARTCHAR Yacute
ENCODING 221
SWIDTH 740 0
DWIDTH 9 0
BBX 9 12 0 0
BITMAP
0600
0800
0000
E380
4100
4200
2400
3800
1000
2000
2000
7000
ENDCHAR

STARTCHAR Thorn
ENCODING 222
SWIDTH 640 0
DWIDTH 9 0
BBX 8 9 0 0
BITMAP
60
3E
21
21
21
46
78
40
E0
ENDCHAR

STARTCHAR germandbls
ENCODING 223
SWIDTH 540 0
DWIDTH 7 0
BBX 6 9 0 0
BITMAP
18
24
24
28
50
48
44
A4
98
ENDCHAR

STARTCHAR agrave
ENCODING 224
SWIDTH 520 0
DWIDTH 7 0
BBX 6 9 0 0
BITMAP
30
08
00
34
4C
84
88
88
74
ENDCHAR

STARTCHAR aacute
ENCODING 225
SWIDTH 520 0
DWIDTH 7 0
BBX 6 9 0 0
BITMAP
0C
10
00
34
4C
84
88
88
74
ENDCHAR

STARTCHAR acircumflex
ENCODING 226
SWIDTH 520 0
DWIDTH 7 0
BBX 6 9 0 0
BITMAP
10
28
00
34
4C
84
88
88
74
ENDCHAR

STARTCHAR atilde
ENCODING 227
SWIDTH 520 0
DWIDTH 7 0
BBX 6 9 0 0
BITMAP
14
28
00
34
4C
84
88
88
74
ENDCHAR

STARTCHAR adieresis
ENCODING 228
SWIDTH 520 0
DWIDTH 7 0
BBX 6 9 0 0
BITMAP
28
28
00
34
4C
84
88
88
74
ENDCHAR

STARTCHAR aring
ENCODING 229
SWIDTH 520 0
DWIDTH 7 0
BBX 6 10 0 0
BITMAP
10
28
10
00
34
4C
84
88
88
74
ENDCHAR

STARTCHAR ae
ENCODING 230
SWIDTH 820 0
DWIDTH 11 0
BBX 10 6 0 0
BITMAP
3980
4640
3CC0
4700
8C40
7780
ENDCHAR

STARTCHAR ccedilla
ENCODING 231
SWIDTH 460 0
DWIDTH 6 0
BBX 5 8 0 -2
BITMAP
38
48
80
80
90
60
20
C0
ENDCHAR

STARTCHAR egrave
ENCODING 232
SWIDTH 500 0
DWIDTH 6 0
BBX 5 9 0 0
BITMAP
60
10
00
30
48
98
E0
88
70
ENDCHAR

STARTCHAR eacute
ENCODING 233
SWIDTH 500 0
DWIDTH 6 0
BBX 5 9 0 0
BITMAP
18
20
00
30
48
98
E0
88
70
ENDCHAR

STARTCHAR ecircumflex
ENCODING 234
SWIDTH 500 0
DWIDTH 6 0
BBX 5 9 0 0
BITMAP
10
28
00
30
48
98
E0
88
70
ENDCHAR

STARTCHAR edieresis
ENCODING 235
SWIDTH 500 0
DWIDTH 6 0
BBX 5 9 0 0
BITMAP
28
28
00
30
48
98
E0
88
70
ENDCHAR

STARTCHAR igrave
ENCODING 236
SWIDTH 280 0
DWIDTH 3 0
BBX 3 9 0 0
BITMAP
C0
20
00
C0
40
40
80
80
C0
ENDCHAR

STARTCHAR iacute
ENCODING 237
SWIDTH 280 0
DWIDTH 3 0
BBX 3 9 0 0
BITMAP
60
80
00
C0
40
40
80
80
C0
ENDCHAR

STARTCHAR icircumflex
ENCODING 238
SWIDTH 280 0
DWIDTH 3 0
BBX 3 9 0 0
BITMAP
40
A0
00
C0
40
40
80
80
C0
ENDCHAR

STARTCHAR idieresis
ENCODING 239
SWIDTH 280 0
DWIDTH 3 0
BBX 3 9 0 0
BITMAP
A0
A0
00
C0
40
40
80
80
C0
ENDCHAR

STARTCHAR eth
ENCODING 240
SWIDTH 560 0
DWIDTH 7 0
BBX 6 9 0 0
BITMAP
68
30
48
3C
44
84
84
88
70
ENDCHAR

STARTCHAR ntilde
ENCODING 241
SWIDTH 600 0
DWIDTH 7 0
BBX 6 9 0 0
BITMAP
14
28
00
B8
44
44
88
88
8C
ENDCHAR

STARTCHAR ograve
ENCODING 242
SWIDTH 560 0
DWIDTH 7 0
BBX 6 9 0 0
BITMAP
60
10
00
38
44
84
84
88
70
ENDCHAR

STARTCHAR oacute
ENCODING 243
SWIDTH 560 0
DWIDTH 7 0
BBX 6 9 0 0
BITMAP
18
20
00
38
44
84
84
88
70
ENDCHAR

STARTCHAR ocircumflex
ENCODING 244
SWIDTH 560 0
DWIDTH 7 0
BBX 6 9 0 0
BITMAP
10
28
00
38
44
84
84
88
70
ENDCHAR

STARTCHAR otilde
ENCODING 245
SWIDTH 560 0
DWIDTH 7 0
BBX 6 9 0 0
BITMAP
28
50
00
38
44
84
84
88
70
ENDCHAR

STARTCHAR odieresis
ENCODING 246
SWIDTH 560 0
DWIDTH 7 0
BBX 6 9 0 0
BITMAP
28
28
00
38
44
84
84
88
70
ENDCHAR

STARTCHAR divide
ENCODING 247
SWIDTH 660 0
DWIDTH 7 0
BBX 7 7 0 0
BITMAP
10
10
00
FE
00
10
10
ENDCHAR

STARTCHAR oslash
ENCODING 248
SWIDTH 560 0
DWIDTH 7 0
BBX 8 8 -1 -1
BITMAP
01
1A
26
4A
52
64
58
80
ENDCHAR

STARTCHAR ugrave
ENCODING 249
SWIDTH 580 0
DWIDTH 7 0
BBX 6 9 0 0
BITMAP
30
08
00
C4
44
84
88
98
6C
ENDCHAR

STARTCHAR uacute
ENCODING 250
SWIDTH 580 0
DWIDTH 7 0
BBX 6 9 0 0
BITMAP
18
20
00
C4
44
84
88
98
6C
ENDCHAR

STARTCHAR ucircumflex
ENCODING 251
SWIDTH 580 0
DWIDTH 7 0
BBX 6 9 0 0
BITMAP
10
28
00
C4
44
84
88
98
6C
ENDCHAR

STARTCHAR udieresis
ENCODING 252
SWIDTH 580 0
DWIDTH 7 0
BBX 6 9 0 0
BITMAP
28
28
00
C4
44
84
88
98
6C
ENDCHAR

STARTCHAR yacute
ENCODING 253
SWIDTH 500 0
DWIDTH 7 0
BBX 6 12 0 -3
BITMAP
0C
10
00
CC
44
44
44
48
50
30
20
C0
ENDCHAR

STARTCHAR thorn
ENCODING 254
SWIDTH 580 0
DWIDTH 7 0
BBX 7 12 -1 -3
BITMAP
30
10
10
1C
22
22
22
66
58
40
40
E0
ENDCHAR

STARTCHAR ydieresis
ENCODING 255
SWIDTH 500 0
DWIDTH 7 0
BBX 6 12 0 -3
BITMAP
28
28
00
CC
44
44
44
48
50
30
20
C0
ENDCHAR
ENDFONT
